<svg xmlns="http://www.w3.org/2000/svg" viewBox="0 0 360 96" role="img" aria-label="Narwal">
  <rect width="360" height="96" rx="18" fill="#111827"/>
  <path fill="#ffffff" d="M48 67V29h9l18 24V29h10v38h-9L58 43v24H48Zm55 0 15-38h11l15 38h-11l-3-8h-14l-3 8h-10Zm16-17h8l-4-12-4 12Zm35 17V29h18c9 0 15 5 15 13 0 5-3 10-8 12l10 13h-12l-9-12h-4v12h-10Zm10-20h7c4 0 6-2 6-5s-2-5-6-5h-7v10Zm43 20-11-38h10l6 23 7-23h8l7 23 6-23h10l-11 38h-10l-7-22-7 22h-8Zm53 0 15-38h11l15 38h-11l-3-8h-14l-3 8h-10Zm16-17h8l-4-12-4 12Zm37 17V29h10v29h18v9h-28Z"/>
</svg>
